<?xml version="1.0" ?>
<svg xmlns="http://www.w3.org/2000/svg" width="2200" height="880">
  <defs>
    <marker id="arrow" viewBox="0 0 12 12" refX="10" refY="6" markerWidth="8" markerHeight="8" orient="auto">
      <path d="M0,0 L12,6 L0,12 Z" fill="context-stroke"/>
    </marker>
  </defs>
  <rect x="20" y="20" width="2160" height="840" rx="8" ry="8" fill="#EEEEEE" stroke="#888888" fill-opacity="0.25" stroke-width="1"/>
  <text x="20" y="0" text-anchor="left" dominant-baseline="hanging" font-family="Arial" font-size="18">Multithreading &amp; multiprocessing</text>
  <rect x="400" y="60" width="1120" height="760" rx="8" ry="8" fill="#EEEEEE" stroke="#888888" fill-opacity="0.25" stroke-width="1"/>
  <text x="400" y="40" text-anchor="left" dominant-baseline="hanging" font-family="Arial" font-size="18">asyncio</text>
  <rect x="1840" y="60" width="300" height="640" rx="8" ry="8" fill="#EEEEEE" stroke="#888888" fill-opacity="0.25" stroke-width="1"/>
  <text x="1840" y="40" text-anchor="left" dominant-baseline="hanging" font-family="Arial" font-size="18">Synchronization</text>
  <rect x="1560" y="60" width="240" height="740" rx="8" ry="8" fill="#EEEEEE" stroke="#888888" fill-opacity="0.25" stroke-width="1"/>
  <text x="1560" y="40" text-anchor="left" dominant-baseline="hanging" font-family="Arial" font-size="18">Multiprocessing</text>
  <rect x="440" y="100" width="1040" height="140" rx="8" ry="8" fill="#EEEEEE" stroke="#888888" fill-opacity="0.25" stroke-width="1"/>
  <text x="440" y="80" text-anchor="left" dominant-baseline="hanging" font-family="Arial" font-size="18">High level API</text>
  <rect x="440" y="640" width="1000" height="140" rx="8" ry="8" fill="#EEEEEE" stroke="#888888" fill-opacity="0.25" stroke-width="1"/>
  <text x="440" y="620" text-anchor="left" dominant-baseline="hanging" font-family="Arial" font-size="18">Low level API</text>
  <rect x="60" y="60" width="300" height="340" rx="8" ry="8" fill="#EEEEEE" stroke="#888888" fill-opacity="0.25" stroke-width="1"/>
  <text x="60" y="40" text-anchor="left" dominant-baseline="hanging" font-family="Arial" font-size="18">Multithreading</text>
  <rect x="440" y="280" width="700" height="140" rx="8" ry="8" fill="#EEEEEE" stroke="#888888" fill-opacity="0.25" stroke-width="1"/>
  <text x="440" y="260" text-anchor="left" dominant-baseline="hanging" font-family="Arial" font-size="18">Queues</text>
  <rect x="440" y="460" width="480" height="140" rx="8" ry="8" fill="#EEEEEE" stroke="#888888" fill-opacity="0.25" stroke-width="1"/>
  <text x="440" y="440" text-anchor="left" dominant-baseline="hanging" font-family="Arial" font-size="18">Streams</text>
  <rect x="680" y="140" width="160" height="60" rx="8" ry="8" fill="#199e5c" stroke="#199e5c" fill-opacity="0.25" stroke-width="2"/>
  <text x="760.0" y="170.0" text-anchor="middle" dominant-baseline="middle" font-family="Arial" font-size="18">run</text>
  <rect x="480" y="140" width="160" height="60" rx="8" ry="8" fill="#199e5c" stroke="#199e5c" fill-opacity="0.25" stroke-width="2"/>
  <text x="560.0" y="170.0" text-anchor="middle" dominant-baseline="middle" font-family="Arial" font-size="18">sleep</text>
  <rect x="100" y="100" width="220" height="60" rx="8" ry="8" fill="#199e5c" stroke="#199e5c" fill-opacity="0.25" stroke-width="2"/>
  <text x="210.0" y="130.0" text-anchor="middle" dominant-baseline="middle" font-family="Arial" font-size="18">Thread</text>
  <rect x="100" y="200" width="220" height="60" rx="8" ry="8" fill="#199e5c" stroke="#199e5c" fill-opacity="0.25" stroke-width="2"/>
  <text x="210.0" y="230.0" text-anchor="middle" dominant-baseline="middle" font-family="Arial" font-size="18">Thread pool executor</text>
  <rect x="100" y="300" width="220" height="60" rx="8" ry="8" fill="#aba960" stroke="#aba960" fill-opacity="0.25" stroke-width="2"/>
  <text x="210.0" y="330.0" text-anchor="middle" dominant-baseline="middle" font-family="Arial" font-size="18">Timer</text>
  <rect x="1600" y="400" width="160" height="60" rx="8" ry="8" fill="#aba960" stroke="#aba960" fill-opacity="0.25" stroke-width="2"/>
  <text x="1680.0" y="430.0" text-anchor="middle" dominant-baseline="middle" font-family="Arial" font-size="18">Value</text>
  <rect x="1600" y="600" width="160" height="60" rx="8" ry="8" fill="#aa363d" stroke="#aa363d" fill-opacity="0.25" stroke-width="2"/>
  <text x="1680.0" y="630.0" text-anchor="middle" dominant-baseline="middle" font-family="Arial" font-size="18">Manager</text>
  <rect x="1600" y="700" width="160" height="60" rx="8" ry="8" fill="#aa363d" stroke="#aa363d" fill-opacity="0.25" stroke-width="2"/>
  <text x="1680.0" y="730.0" text-anchor="middle" dominant-baseline="middle" font-family="Arial" font-size="18">Listener</text>
  <rect x="1600" y="500" width="160" height="60" rx="8" ry="8" fill="#aba960" stroke="#aba960" fill-opacity="0.25" stroke-width="2"/>
  <text x="1680.0" y="530.0" text-anchor="middle" dominant-baseline="middle" font-family="Arial" font-size="18">Array</text>
  <rect x="1880" y="100" width="220" height="60" rx="8" ry="8" fill="#199e5c" stroke="#199e5c" fill-opacity="0.25" stroke-width="2"/>
  <text x="1990.0" y="130.0" text-anchor="middle" dominant-baseline="middle" font-family="Arial" font-size="18">Lock</text>
  <rect x="1880" y="200" width="220" height="60" rx="8" ry="8" fill="#199e5c" stroke="#199e5c" fill-opacity="0.25" stroke-width="2"/>
  <text x="1990.0" y="230.0" text-anchor="middle" dominant-baseline="middle" font-family="Arial" font-size="18">Event</text>
  <rect x="880" y="140" width="160" height="60" rx="8" ry="8" fill="#199e5c" stroke="#199e5c" fill-opacity="0.25" stroke-width="2"/>
  <text x="960.0" y="170.0" text-anchor="middle" dominant-baseline="middle" font-family="Arial" font-size="18">create_task</text>
  <rect x="1080" y="140" width="160" height="60" rx="8" ry="8" fill="#199e5c" stroke="#199e5c" fill-opacity="0.25" stroke-width="2"/>
  <text x="1160.0" y="170.0" text-anchor="middle" dominant-baseline="middle" font-family="Arial" font-size="18">gather</text>
  <rect x="1280" y="140" width="160" height="60" rx="8" ry="8" fill="#aba960" stroke="#aba960" fill-opacity="0.25" stroke-width="2"/>
  <text x="1360.0" y="170.0" text-anchor="middle" dominant-baseline="middle" font-family="Arial" font-size="18">...</text>
  <rect x="1880" y="300" width="220" height="60" rx="8" ry="8" fill="#aba960" stroke="#aba960" fill-opacity="0.25" stroke-width="2"/>
  <text x="1990.0" y="330.0" text-anchor="middle" dominant-baseline="middle" font-family="Arial" font-size="18">Condition</text>
  <rect x="1880" y="600" width="220" height="60" rx="8" ry="8" fill="#aa363d" stroke="#aa363d" fill-opacity="0.25" stroke-width="2"/>
  <text x="1990.0" y="630.0" text-anchor="middle" dominant-baseline="middle" font-family="Arial" font-size="18">Barrier</text>
  <rect x="1880" y="400" width="220" height="60" rx="8" ry="8" fill="#aba960" stroke="#aba960" fill-opacity="0.25" stroke-width="2"/>
  <text x="1990.0" y="430.0" text-anchor="middle" dominant-baseline="middle" font-family="Arial" font-size="18">Semaphore</text>
  <rect x="1880" y="500" width="220" height="60" rx="8" ry="8" fill="#aa363d" stroke="#aa363d" fill-opacity="0.25" stroke-width="2"/>
  <text x="1990.0" y="530.0" text-anchor="middle" dominant-baseline="middle" font-family="Arial" font-size="18">BoundedSemaphore</text>
  <rect x="480" y="320" width="180" height="60" rx="8" ry="8" fill="#199e5c" stroke="#199e5c" fill-opacity="0.25" stroke-width="2"/>
  <text x="570.0" y="350.0" text-anchor="middle" dominant-baseline="middle" font-family="Arial" font-size="18">Queue</text>
  <rect x="700" y="320" width="180" height="60" rx="8" ry="8" fill="#aba960" stroke="#aba960" fill-opacity="0.25" stroke-width="2"/>
  <text x="790.0" y="350.0" text-anchor="middle" dominant-baseline="middle" font-family="Arial" font-size="18">PriorityQueue</text>
  <rect x="920" y="320" width="180" height="60" rx="8" ry="8" fill="#aba960" stroke="#aba960" fill-opacity="0.25" stroke-width="2"/>
  <text x="1010.0" y="350.0" text-anchor="middle" dominant-baseline="middle" font-family="Arial" font-size="18">LifoQueue</text>
  <rect x="1600" y="100" width="160" height="60" rx="8" ry="8" fill="#199e5c" stroke="#199e5c" fill-opacity="0.25" stroke-width="2"/>
  <text x="1680.0" y="130.0" text-anchor="middle" dominant-baseline="middle" font-family="Arial" font-size="18">Pool</text>
  <rect x="1600" y="200" width="160" height="60" rx="8" ry="8" fill="#aba960" stroke="#aba960" fill-opacity="0.25" stroke-width="2"/>
  <text x="1680.0" y="230.0" text-anchor="middle" dominant-baseline="middle" font-family="Arial" font-size="18">Process</text>
  <rect x="1600" y="300" width="160" height="60" rx="8" ry="8" fill="#aba960" stroke="#aba960" fill-opacity="0.25" stroke-width="2"/>
  <text x="1680.0" y="330.0" text-anchor="middle" dominant-baseline="middle" font-family="Arial" font-size="18">Pipe</text>
  <rect x="480" y="500" width="180" height="60" rx="8" ry="8" fill="#aba960" stroke="#aba960" fill-opacity="0.25" stroke-width="2"/>
  <text x="570.0" y="530.0" text-anchor="middle" dominant-baseline="middle" font-family="Arial" font-size="18">StreamReader</text>
  <rect x="700" y="500" width="180" height="60" rx="8" ry="8" fill="#aba960" stroke="#aba960" fill-opacity="0.25" stroke-width="2"/>
  <text x="790.0" y="530.0" text-anchor="middle" dominant-baseline="middle" font-family="Arial" font-size="18">StreamWriter</text>
  <rect x="480" y="680" width="180" height="60" rx="8" ry="8" fill="#aba960" stroke="#aba960" fill-opacity="0.25" stroke-width="2"/>
  <text x="570.0" y="710.0" text-anchor="middle" dominant-baseline="middle" font-family="Arial" font-size="18">new_event_loop</text>
  <rect x="700" y="680" width="180" height="60" rx="8" ry="8" fill="#aba960" stroke="#aba960" fill-opacity="0.25" stroke-width="2"/>
  <text x="790.0" y="710.0" text-anchor="middle" dominant-baseline="middle" font-family="Arial" font-size="18">run_forever</text>
  <rect x="920" y="680" width="180" height="60" rx="8" ry="8" fill="#aba960" stroke="#aba960" fill-opacity="0.25" stroke-width="2"/>
  <text x="1010.0" y="710.0" text-anchor="middle" dominant-baseline="middle" font-family="Arial" font-size="18">create_future</text>
  <rect x="1140" y="680" width="180" height="60" rx="8" ry="8" fill="#aa363d" stroke="#aa363d" fill-opacity="0.25" stroke-width="2"/>
  <text x="1230.0" y="710.0" text-anchor="middle" dominant-baseline="middle" font-family="Arial" font-size="18">...</text>
  <path d="M 210.0 160 L 210.0 200" stroke="#795fac" fill="none" marker-end="url(#arrow)" stroke-width="2"/>
  <path d="M 210.0 260 L 210.0 300" stroke="#795fac" fill="none" marker-end="url(#arrow)" stroke-width="2"/>
  <path d="M 320 330.0 C 441 277 359 223 480 170.0" stroke="#795fac" fill="none" marker-end="url(#arrow)" stroke-width="2"/>
  <path d="M 640 170.0 L 680 170.0" stroke="#795fac" fill="none" marker-end="url(#arrow)" stroke-width="2"/>
  <path d="M 840 170.0 L 880 170.0" stroke="#795fac" fill="none" marker-end="url(#arrow)" stroke-width="2"/>
  <path d="M 1040 170.0 L 1080 170.0" stroke="#795fac" fill="none" marker-end="url(#arrow)" stroke-width="2"/>
  <path d="M 1240 170.0 L 1280 170.0" stroke="#795fac" fill="none" marker-end="url(#arrow)" stroke-width="2"/>
  <path d="M 1360.0 200 C 1097 395 833 125 570.0 320" stroke="#795fac" fill="none" marker-end="url(#arrow)" stroke-width="2"/>
  <path d="M 1010.0 380 C 863 557 717 323 570.0 500" stroke="#795fac" fill="none" marker-end="url(#arrow)" stroke-width="2"/>
  <path d="M 660 530.0 L 700 530.0" stroke="#795fac" fill="none" marker-end="url(#arrow)" stroke-width="2"/>
  <path d="M 790.0 560 C 717 675 643 565 570.0 680" stroke="#795fac" fill="none" marker-end="url(#arrow)" stroke-width="2"/>
  <path d="M 660 710.0 L 700 710.0" stroke="#795fac" fill="none" marker-end="url(#arrow)" stroke-width="2"/>
  <path d="M 1320 710.0 C 1568 517 1352 323 1600 130.0" stroke="#795fac" fill="none" marker-end="url(#arrow)" stroke-width="2"/>
  <path d="M 1680.0 160 L 1680.0 200" stroke="#795fac" fill="none" marker-end="url(#arrow)" stroke-width="2"/>
  <path d="M 1680.0 260 L 1680.0 300" stroke="#795fac" fill="none" marker-end="url(#arrow)" stroke-width="2"/>
  <path d="M 1680.0 360 L 1680.0 400" stroke="#795fac" fill="none" marker-end="url(#arrow)" stroke-width="2"/>
  <path d="M 1680.0 460 L 1680.0 500" stroke="#795fac" fill="none" marker-end="url(#arrow)" stroke-width="2"/>
  <path d="M 1680.0 560 L 1680.0 600" stroke="#795fac" fill="none" marker-end="url(#arrow)" stroke-width="2"/>
  <path d="M 1680.0 660 L 1680.0 700" stroke="#795fac" fill="none" marker-end="url(#arrow)" stroke-width="2"/>
  <path d="M 1760 730.0 C 1955 530 1685 330 1880 130.0" stroke="#795fac" fill="none" marker-end="url(#arrow)" stroke-width="2"/>
  <path d="M 1990.0 160 L 1990.0 200" stroke="#795fac" fill="none" marker-end="url(#arrow)" stroke-width="2"/>
  <path d="M 1990.0 260 L 1990.0 300" stroke="#795fac" fill="none" marker-end="url(#arrow)" stroke-width="2"/>
  <path d="M 1990.0 360 L 1990.0 400" stroke="#795fac" fill="none" marker-end="url(#arrow)" stroke-width="2"/>
  <path d="M 1990.0 460 L 1990.0 500" stroke="#795fac" fill="none" marker-end="url(#arrow)" stroke-width="2"/>
  <path d="M 1990.0 560 L 1990.0 600" stroke="#795fac" fill="none" marker-end="url(#arrow)" stroke-width="2"/>
  <path d="M 660 350.0 L 700 350.0" stroke="#795fac" fill="none" marker-end="url(#arrow)" stroke-width="2"/>
  <path d="M 880 350.0 L 920 350.0" stroke="#795fac" fill="none" marker-end="url(#arrow)" stroke-width="2"/>
  <path d="M 880 710.0 L 920 710.0" stroke="#795fac" fill="none" marker-end="url(#arrow)" stroke-width="2"/>
  <path d="M 1100 710.0 L 1140 710.0" stroke="#795fac" fill="none" marker-end="url(#arrow)" stroke-width="2"/>
</svg>
